HIERARCHY
ROOT Hips
{
	OFFSET -14.64140 90.27770 -84.91600
	CHANNELS 6 Xposition Yposition Zposition Zrotation Xrotation Yrotation
	JOINT Spine
	{
		OFFSET 0.00000 13.20850 -1.60436
		CHANNELS 3 Zrotation Xrotation Yrotation
		JOINT Spine1
		{
			OFFSET 0.00000 8.61716 0.00000
			CHANNELS 3 Zrotation Xrotation Yrotation
			JOINT Spine2
			{
				OFFSET 0.00000 8.61717 0.00000
				CHANNELS 3 Zrotation Xrotation Yrotation
				JOINT Spine3
				{
					OFFSET 0.00000 8.61717 0.00000
					CHANNELS 3 Zrotation Xrotation Yrotation
					JOINT Neck
					{
						OFFSET 0.00000 11.07920 1.10792
						CHANNELS 3 Zrotation Xrotation Yrotation
						JOINT Neck1
						{
							OFFSET 0.00000 7.08032 0.00000
							CHANNELS 3 Zrotation Xrotation Yrotation
							JOINT Head
							{
								OFFSET 0.00000 7.08031 0.00000
								CHANNELS 3 Zrotation Xrotation Yrotation
								End site
								{
									OFFSET 0.00000 0.00000 0.00000
								}
							}
						}
					}
					JOINT RightShoulder
					{
						OFFSET -0.01000 7.91373 5.19711
						CHANNELS 3 Zrotation Xrotation Yrotation
						JOINT RightArm
						{
							OFFSET -18.41580 0.00000 0.00000
							CHANNELS 3 Zrotation Xrotation Yrotation
							JOINT RightForeArm
							{
								OFFSET -29.11090 0.00000 0.00000
								CHANNELS 3 Zrotation Xrotation Yrotation
								JOINT RightHand
								{
									OFFSET -24.65040 0.00000 0.00000
									CHANNELS 3 Zrotation Xrotation Yrotation
									JOINT RightHandThumb1
									{
										OFFSET -5.35114 -0.85590 3.97906
										CHANNELS 3 Zrotation Xrotation Yrotation
										JOINT RightHandThumb2
										{
											OFFSET -4.52789 0.00000 0.00000
											CHANNELS 3 Zrotation Xrotation Yrotation
											JOINT RightHandThumb3
											{
												OFFSET -2.46976 0.00000 0.00000
												CHANNELS 3 Zrotation Xrotation Yrotation
												End site
												{
													OFFSET 0.00000 0.00000 0.00000
												}
											}
										}
									}
									JOINT RightHandIndex1
									{
										OFFSET -14.26970 0.00000 2.88139
										CHANNELS 3 Zrotation Xrotation Yrotation
										JOINT RightHandIndex2
										{
											OFFSET -5.48836 0.00000 0.00000
											CHANNELS 3 Zrotation Xrotation Yrotation
											JOINT RightHandIndex3
											{
												OFFSET -3.01859 0.00000 0.00000
												CHANNELS 3 Zrotation Xrotation Yrotation
												End site
												{
													OFFSET 0.00000 0.00000 0.00000
												}
											}
										}
									}
									JOINT RightHandMiddle1
									{
										OFFSET -14.26970 0.00000 -0.09147
										CHANNELS 3 Zrotation Xrotation Yrotation
										JOINT RightHandMiddle2
										{
											OFFSET -6.17441 0.00000 0.00000
											CHANNELS 3 Zrotation Xrotation Yrotation
											JOINT RightHandMiddle3
											{
												OFFSET -3.56743 0.00000 0.00000
												CHANNELS 3 Zrotation Xrotation Yrotation
												End site
												{
													OFFSET 0.00000 0.00000 0.00000
												}
											}
										}
									}
									JOINT RightHandRing1
									{
										OFFSET -12.69180 0.00000 -3.06433
										CHANNELS 3 Zrotation Xrotation Yrotation
										JOINT RightHandRing2
										{
											OFFSET -5.62556 0.00000 0.00000
											CHANNELS 3 Zrotation Xrotation Yrotation
											JOINT RightHandRing3
											{
												OFFSET -3.56744 0.00000 0.00000
												CHANNELS 3 Zrotation Xrotation Yrotation
												End site
												{
													OFFSET 0.00000 0.00000 0.00000
												}
											}
										}
									}
									JOINT RightHandPinky1
									{
										OFFSET -11.11390 0.00000 -6.03719
										CHANNELS 3 Zrotation Xrotation Yrotation
										JOINT RightHandPinky2
										{
											OFFSET -4.52789 0.00000 0.00000
											CHANNELS 3 Zrotation Xrotation Yrotation
											JOINT RightHandPinky3
											{
												OFFSET -2.46976 0.00000 0.00000
												CHANNELS 3 Zrotation Xrotation Yrotation
												End site
												{
													OFFSET 0.00000 0.00000 0.00000
												}
											}
										}
									}
								}
							}
						}
					}
					JOINT LeftShoulder
					{
						OFFSET 0.01000 7.91373 5.19711
						CHANNELS 3 Zrotation Xrotation Yrotation
						JOINT LeftArm
						{
							OFFSET 18.41580 0.00000 0.00000
							CHANNELS 3 Zrotation Xrotation Yrotation
							JOINT LeftForeArm
							{
								OFFSET 29.11090 0.00000 0.00000
								CHANNELS 3 Zrotation Xrotation Yrotation
								JOINT LeftHand
								{
									OFFSET 24.65040 0.00000 0.00000
									CHANNELS 3 Zrotation Xrotation Yrotation
									JOINT LeftHandThumb1
									{
										OFFSET 5.35114 -0.85590 3.97906
										CHANNELS 3 Zrotation Xrotation Yrotation
										JOINT LeftHandThumb2
										{
											OFFSET 4.52789 0.00000 0.00000
											CHANNELS 3 Zrotation Xrotation Yrotation
											JOINT LeftHandThumb3
											{
												OFFSET 2.46977 0.00000 0.00000
												CHANNELS 3 Zrotation Xrotation Yrotation
												End site
												{
													OFFSET 0.00000 0.00000 0.00000
												}
											}
										}
									}
									JOINT LeftHandIndex1
									{
										OFFSET 14.26970 0.00000 2.88139
										CHANNELS 3 Zrotation Xrotation Yrotation
										JOINT LeftHandIndex2
										{
											OFFSET 5.48836 0.00000 0.00000
											CHANNELS 3 Zrotation Xrotation Yrotation
											JOINT LeftHandIndex3
											{
												OFFSET 3.01859 0.00000 0.00000
												CHANNELS 3 Zrotation Xrotation Yrotation
												End site
												{
													OFFSET 0.00000 0.00000 0.00000
												}
											}
										}
									}
									JOINT LeftHandMiddle1
									{
										OFFSET 14.26970 0.00000 -0.09147
										CHANNELS 3 Zrotation Xrotation Yrotation
										JOINT LeftHandMiddle2
										{
											OFFSET 6.17440 0.00000 0.00000
											CHANNELS 3 Zrotation Xrotation Yrotation
											JOINT LeftHandMiddle3
											{
												OFFSET 3.56744 0.00000 0.00000
												CHANNELS 3 Zrotation Xrotation Yrotation
												End site
												{
													OFFSET 0.00000 0.00000 0.00000
												}
											}
										}
									}
									JOINT LeftHandRing1
									{
										OFFSET 12.69180 0.00000 -3.06433
										CHANNELS 3 Zrotation Xrotation Yrotation
										JOINT LeftHandRing2
										{
											OFFSET 5.62556 0.00000 0.00000
											CHANNELS 3 Zrotation Xrotation Yrotation
											JOINT LeftHandRing3
											{
												OFFSET 3.56744 0.00000 0.00000
												CHANNELS 3 Zrotation Xrotation Yrotation
												End site
												{
													OFFSET 0.00000 0.00000 0.00000
												}
											}
										}
									}
									JOINT LeftHandPinky1
									{
										OFFSET 11.11390 0.00000 -6.03719
										CHANNELS 3 Zrotation Xrotation Yrotation
										JOINT LeftHandPinky2
										{
											OFFSET 4.52789 0.00000 0.00000
											CHANNELS 3 Zrotation Xrotation Yrotation
											JOINT LeftHandPinky3
											{
												OFFSET 2.46976 0.00000 0.00000
												CHANNELS 3 Zrotation Xrotation Yrotation
												End site
												{
													OFFSET 0.00000 0.00000 0.00000
												}
											}
										}
									}
								}
							}
						}
					}
					JOINT pCube4
					{
						OFFSET 0.00000 10.91090 1.10792
						CHANNELS 3 Zrotation Xrotation Yrotation
						End site
						{
							OFFSET 0.00000 0.00000 0.00000
						}
					}
				}
			}
		}
	}
	JOINT RightUpLeg
	{
		OFFSET -9.98441 0.00000 0.00000
		CHANNELS 3 Zrotation Xrotation Yrotation
		JOINT RightLeg
		{
			OFFSET 0.00000 -42.11790 0.00000
			CHANNELS 3 Zrotation Xrotation Yrotation
			JOINT RightFoot
			{
				OFFSET 0.00000 -45.00020 -0.00001
				CHANNELS 3 Zrotation Xrotation Yrotation
				JOINT RightForeFoot
				{
					OFFSET 0.00000 -3.74820 0.00000
					CHANNELS 3 Zrotation Xrotation Yrotation
					JOINT RightToeBase
					{
						OFFSET 0.00000 0.06325 14.43120
						CHANNELS 3 Zrotation Xrotation Yrotation
						End site
						{
							OFFSET 0.00000 0.00000 0.00000
						}
					}
				}
			}
		}
	}
	JOINT LeftUpLeg
	{
		OFFSET 9.98441 0.00000 0.00000
		CHANNELS 3 Zrotation Xrotation Yrotation
		JOINT LeftLeg
		{
			OFFSET 0.00000 -42.11800 0.00000
			CHANNELS 3 Zrotation Xrotation Yrotation
			JOINT LeftFoot
			{
				OFFSET 0.00000 -45.00070 0.00000
				CHANNELS 3 Zrotation Xrotation Yrotation
				JOINT LeftForeFoot
				{
					OFFSET 0.00000 -3.74824 0.00000
					CHANNELS 3 Zrotation Xrotation Yrotation
					JOINT LeftToeBase
					{
						OFFSET 0.00000 0.06325 14.43110
						CHANNELS 3 Zrotation Xrotation Yrotation
						End site
						{
							OFFSET 0.00000 0.00000 0.00000
						}
					}
				}
			}
		}
	}
}
MOTION
Frames: 4
Frame Time: 0.050000
-0.012263334037607314 -0.004053735069686865 -0.019855230326067404 0.009237378940933431 0.01262042606415628 0.03705818432413088 -3.109077869737145 6.58817218957341 -0.7192596232419756 -0.6323697402084745 3.1741397773973827 0.3398913717093145 -0.8356639915781559 -0.08596076411166059 -0.6199279943408688 -0.31943607448724676 0.2608178434209029 -0.8076299387780859 -0.09779362027004448 7.3398450998022255 -0.6349961503653494 0.02554741009126386 -2.0552000585743815 -4.6294916163058994 0.3423015931833956 -16.937471938644826 -0.33269375755573294 4.263259725659215 -0.10811764654168884 -11.256256824841875 71.01945297271277 9.072162506898236 5.786937650818921 18.929356045955288 13.854630345346251 67.1226988108546 25.947723283467734 0.09902161560338253 -8.737573081618137 4.537022968852 -0.12312219274354477 -1.566965263129422 -0.04015094428280293 -0.02615367099130066 -56.23972428427883 0.03645993315373818 0.015742421905314982 -56.272785685126514 -38.782501901223704 0.04811336660638156 -0.016625612429360236 0.02017683895655863 -0.03999918929535481 0.026171983167647524 0.02425694095210056 0.018209764745773273 0.009205372200807447 -36.715698606165965 0.035952618835748795 0.0064919600679411715 0.0446940860365772 0.022895859174126145 0.02595245520847302 0.04293392022270178 -0.03770643662868475 -0.011480178172793053 -19.79996690146114 -0.0049906062124580345 -0.027942442457797544 -0.047944302783020136 -0.005545206004853761 -0.02481992516878976 0.033732884186464786 -0.04441040438883577 -0.02657993176528246 24.0776799796115 0.030360233538006452 0.019351840384239174 28.908464352454928 -0.02508215348206515 -0.02493080170406985 28.843544150068883 0.0318969024297383 0.001383211581365719 -3.1798232551759438 0.025265118060456365 10.020612134165718 -68.82382126272252 18.60603471373228 -7.750100506490888 -9.494175345586925 9.66007478925165 -49.07751141851813 -17.860115711858356 5.70300041025123 -1.5089445830613677 -0.43568764588584963 0.09204429663704711 -8.14075537889728 -0.041099777857701185 -0.043079329802080756 44.58004597238655 -0.007806108181416294 0.022897620464365876 44.54658166939734 12.46106810709485 0.045880708987202756 0.03197080008587173 0.03345242149524186 -0.027889697329141098 -0.006685957885540027 -0.026306213379553623 0.03281411652635896 -0.02101540865179889 11.121147359474094 0.027362723008000744 -0.03504969839568796 -0.023140742141867572 -0.011372265757905052 0.041812962491906074 0.011097768981750265 0.010644526167464531 -0.00370251122564884 4.740287659897561 -0.009943634201121059 0.002473747958449927 0.016979658553973414 0.0016767039001513691 0.03259150219852386 0.022265393244679837 0.023508803864903168 0.014722003626827075 -5.613179910072696 0.030619697050666587 -0.0046030324316481816 -6.69142632363726 -0.004123146391255648 -0.00419494923869403 -6.679605823458827 0.03565261327236898 0.027315121837792198 0.018665586873402605 0.00035607520265908387 -0.0011107577458250564 8.013449904681568 3.507880904721077 -19.260591917676567 0.02191914755441029 10.441510194281086 -0.00953291839295568 -5.64567792342459 -15.636407379772665 3.234084131362617 0.018017421710291505 -0.016743105919561137 0.028875944623117804 -0.008847599290790719 4.6977674385099775 0.016179786433214792 12.501427492265192 -8.236455646291674 6.904207510051334 -0.020193125595470814 46.33581762326419 -0.009179235787738334 -4.296783021131976 -14.795912102904273 -3.8630826228599795 0.0329369077862518 -0.024082837855960777 0.040195400395669593 0.03925192613072221 -10.776908827948604 -0.020090460117420605 
-0.046331351527504616 -0.0173795908203258 -0.008955590718599606 0.03465921664808099 -0.001548888874642854 0.023693274081781013 -2.1630809117362535 5.622518466091258 -0.8751648581961768 -0.664135149025634 3.2967605307123646 0.32749196888591037 -0.8547855509597746 -0.358249635611566 -0.4455567481405589 -0.29361012106583956 0.20268155638789206 -0.7812952313323378 -0.06368433472800845 8.34713388726307 -0.7616272768845266 0.03405470465513825 -1.9897050059469639 -4.550379756746247 0.38788999451236594 -17.359682936984353 -0.3452375898863637 2.1372173543189263 0.38776238985495753 -11.771753311949873 72.61543961308664 10.206127472009173 8.359235571748629 29.879129622769366 11.438360814332668 76.01594919657282 23.37167201547578 0.07408612891254707 -9.113382646245425 4.552390017798376 -0.09282541198399508 -1.5802572188827153 0.026699742797547492 -0.02027129324608777 -56.25870583818823 0.023791841167230633 0.04876942514150937 -56.25496890365281 -38.795453926059125 0.024782114814362342 -0.019795273680420354 0.03602110695136524 0.006202739076967982 -0.010043822904001005 0.04070479840283957 0.009555349720413381 -0.03503890604863948 -36.70249501311576 0.049858498307948286 0.036435062136768816 0.007399897210294885 -0.024702064913124024 0.029305415088706408 0.0006958753181821207 0.025242366793202783 -0.0007415462804378604 -19.71146853008341 -0.03009579670727528 0.00540814972699873 0.03671243953926264 0.0052424893132489185 -0.04302917994873583 0.040835615649534314 0.04534068971234483 0.001189757362536227 24.02961408748069 0.004550602398451367 0.000961511197943558 28.900390321797207 0.005816326464592482 0.04073415377312039 28.85230368184873 0.005857991867507762 0.0333876807788822 -1.1942380758599447 0.4018534589852286 10.481222352742112 -70.21974298798543 19.774568265702428 -8.965949791515644 -15.065336167960707 9.343190916427933 -52.86858441071356 -16.40537028830587 4.5434160432695245 -0.6698143189436647 -0.47085782303668633 0.10446247513999385 -8.124310205882686 0.036765955230763106 0.033705551564475814 44.607983554897785 -0.03536853991451868 -0.022730642488311782 44.54212243980724 12.410569476618223 -0.005544846298514644 -0.04478853588515557 -0.017203883062523132 -0.023108009856706555 -0.004757340568876492 -0.03184209018411535 0.006014860116657514 -0.048921422613106745 11.123726848522812 -0.019215506870751412 -0.04821324122448432 0.030668888200049312 -0.00885678152365236 -0.049268600437159825 -0.008310496358604624 -0.009068810008233242 0.033687585998893314 4.800488582320405 0.010659584594842073 -0.02245454810234952 0.03344273283590389 -0.030756303298093965 0.008599657408458243 -0.002313441772605071 0.04515073422917889 -0.013166008717641614 -5.636160769491604 -0.020536960316495694 0.02571636249029287 -6.690787605181451 -0.019977892764003403 0.00309947175932897 -6.715786568505492 -0.00798023313557734 -0.045911251769470356 0.025959614647852593 0.015299515407007695 0.008844823893190832 8.091167265896258 3.4613901689003246 -19.245416430747188 -0.02285441297492769 10.354551360572762 0.008876069505844292 -5.603017775577512 -15.6367889841384 3.2389764611255223 -0.013338870749890841 0.04393651372463811 -0.011509973034879495 -0.025301227486594878 4.73374416925673 0.005949319380398702 12.48772412020558 -8.191174424125967 6.843076909782661 -0.017139896272152295 46.35148297515402 0.025283624126757717 -4.278825117029447 -14.777590433662432 -3.8724475484225693 -0.033322945764980856 0.015716015250503264 0.021498427597727965 -0.0038457003442228057 -10.739224272173622 -0.03748358170329945 
0.026404545729034952 0.041233574683836066 -0.03926885423524132 0.00960320521412671 -0.04266694371873048 0.020191222957644115 -1.3051202465957095 4.863449386847493 -1.0276335503844587 -0.7219888177702626 3.388443426502037 0.36488253368608764 -0.8498376457551186 -0.6202500261661195 -0.2371150695861201 -0.3037327670719239 0.09325353390811127 -0.7385379445142916 0.00413921769461735 9.150304221237167 -0.7794634899900609 0.08328075899063433 -1.74237471920377 -4.391108341955715 0.5191292620228314 -17.376949713061386 -0.3907735768902806 0.009457873272898765 0.9142958907949382 -12.204619748871963 74.4487876075367 11.007611608177848 10.640653129737592 38.200322043410814 8.201272372674827 82.65874289112092 21.066805173663937 -0.09059707691169443 -9.074449678559988 4.522662691723713 -0.12104274531273904 -1.5872720608503275 -0.016480765433748996 -0.024741302095430986 -56.26832761040029 0.03455483548687337 -0.002728613287284523 -56.278012028871224 -38.74671077035335 0.014807818509176689 -0.028169826935802462 0.000600915091379317 -0.04158788563194616 -0.045770469882439886 -0.004521667972938227 0.0004883432068292637 -0.029482174287426405 -36.65563878542792 -0.013789885021705065 0.016084801680813575 -0.003173145396153739 0.018772237376251735 0.025491188420237842 0.014499901919551087 -0.0017433771272886431 0.047702502997236065 -19.74341815597316 0.0373148175495103 -0.007035027221432918 -0.006237560682750163 0.00858854435701463 0.03610747828818292 0.046691699442870035 0.0008219833407755045 -0.005310138841652053 24.08354272768608 -0.038331232165053 0.0011523165229758844 28.83584212898311 -0.009244105442056269 -0.01191367927100867 28.846365247138074 0.040498324777446575 0.022361587333846838 0.8562216099439178 0.7549353433158081 10.769907661691612 -71.43902371309336 20.738332968516115 -10.044978604627957 -19.6992491266117 8.286440204298994 -56.1159471594327 -15.167439369353717 2.9925575101093984 0.3225691963092199 -0.4704145856849338 0.07158008698319542 -8.121180703617705 0.02105308893660276 -0.008981872197130205 44.55372451757402 0.04405957959025072 0.04101320695396067 44.519924098004 12.50532708443436 0.03941072542883657 0.013018386940817795 -0.024788215102696496 0.025266685019253797 0.026229282451613222 0.014701747581162224 0.0023361911944485493 -0.016163531904698134 11.075332038123019 0.004896907883396735 0.0033956094477847402 0.0226328124044282 -0.008401695888381144 0.029030904913177617 0.013197904792819199 0.040443720236450036 -0.016839667690363307 4.794768639782082 -0.013381591562338447 0.045073846640580964 -0.02615411922446614 0.0034916024325725853 -0.03214379137944269 -0.01289085937928109 -0.015709488617133116 0.03894218045402141 -5.631528699459691 -0.009244381551139375 -0.04479491639873123 -6.74246756729243 0.04469362872914173 0.01731240144824651 -6.699538438092101 0.006787521735583152 -0.025697589532266044 -0.022323825469877552 -0.028752826160200667 -0.04822631839203876 8.069917462366934 3.498641297252166 -19.18848279763974 0.0428985448942928 10.354219502649674 -0.02414058121396345 -5.645000006884658 -15.641226169543426 3.187112000603894 -0.013395002301512906 -0.022481627246997427 0.0013619785465297412 -0.038810683059108245 4.66402653272416 -0.03298418621386686 12.486381964463524 -8.235306392791198 6.898426826625856 -0.021879652280785266 46.34243147244984 -0.004571135008094335 -4.331997461455626 -14.774116088072935 -3.8770138832632925 -0.02992893909456638 -0.012710082810115556 -0.015309551913964436 -0.04365102411358627 -10.697028314782012 0.04715434376817973 
-0.04201103525807928 -0.03203417906967462 0.0003159548853675462 -0.0416253365647223 0.03841114283306242 0.03161658844702862 -0.44802973507188415 4.295227999522886 -1.1239622561548879 -0.7467735417713786 3.439284289745859 0.37058489429359515 -0.8444219954035627 -0.750494667088533 -0.14056959343604053 -0.2664790830582104 0.10185751943920653 -0.6350456288693657 0.0011733194716707553 9.740400939094318 -0.9516857809854133 0.051886660599135576 -1.5169695502564382 -4.39504276283429 0.5018924617406909 -17.34312472459673 -0.3304702206618602 -1.676765426274894 1.404180995742767 -12.702861655202865 75.96960587125996 11.018734560858451 12.100796637784562 42.83242287971861 5.739687199298154 85.99798075609925 19.31299955030753 -0.16293574655190715 -8.745620828063357 4.532844380852434 -0.10991786988004291 -1.5435394217838427 0.023942362786280973 -0.04965931044505084 -56.23148093229286 0.03783925631706869 -0.021733553934319756 -56.207780417341866 -38.80840844573667 -0.01980583845456905 -0.005393695283474979 0.04240460130197805 -0.024106301539231472 -0.019145725693212032 -0.007083508897283675 -0.022857188837659654 -0.018109715909015337 -36.68070222750944 0.003804364937843618 -0.03750534438393725 0.04589918808806054 0.02890818756869219 0.02438113634205791 0.002550646454976043 -0.048087893871413205 0.034706311024584165 -19.804129113115607 -0.03971212638938682 0.03707007448420969 -0.015470012566273197 -0.022554153797429772 0.006272992443753209 0.04632442542648922 0.03706420599385465 0.01669391021048051 24.028466773789184 -0.024399130709053838 -0.04983247855200692 28.892749940136355 0.012359356119977958 0.02725692104121262 28.855236496715793 -0.03357046234614614 0.006715839961427787 2.504543597343283 1.0110000411550444 11.144358309100577 -72.46756521247252 21.122736234546963 -10.676434441509267 -21.502280811416973 6.369872900191024 -57.41375461082103 -14.665581420105235 1.5250600523520725 1.1171838662616973 -0.4433630566448489 0.02673655489362091 -8.140557819316745 0.04647301056392701 -0.00344739647550928 44.614466914313304 -0.02577855010551729 0.022334190678276758 44.589741441381726 12.446718254720285 -0.005836390350181149 -0.03920480395265394 -0.007306448920257343 -0.009766079375143896 0.0022252241860150797 0.02495740619170765 0.041171927879515936 0.03234371737612553 11.065307219061342 0.0420759942166652 0.048352351768467576 0.011732439971374967 -0.00961750661229634 0.010698422905515594 -0.046098843397261904 0.02418564760189499 0.04592586359279238 4.760299670475251 -0.04312680659019989 0.048483019321046275 0.002338043375215048 0.020210051399521218 0.023667591336639628 -0.021547529780465147 0.005906574983401764 -0.04177016223504644 -5.592664026238514 0.01188949180796647 0.007589909088998135 -6.703526104265769 0.004268015063465598 -0.03716606370907585 -6.743203305859495 -0.04307271800553908 0.021063402788672664 0.004149323740979351 0.01584791632641329 -0.016927243124375158 8.062950796556954 3.5186360200150433 -19.223627174220255 0.035974596330509194 10.384978701229379 0.04580763040400565 -5.6658140137082444 -15.70068814741525 3.2258757923374803 -0.042702744403157626 -0.010247461830800981 -0.025938291926647452 -0.022211292385915397 4.731956415013725 -0.013949791022753176 12.47483639517572 -8.21395712321581 6.898533720728015 0.006291408332072579 46.38132219024038 0.051018428301246276 -4.360048603916425 -14.755873897838654 -3.802413862269156 -0.011471381307033086 0.03790764687268315 0.005598486629376656 -0.03853247884053075 -10.700640803350804 -0.012548697993713368 
